<svg width="39" height="37" viewBox="0 0 39 37" fill="none" xmlns="http://www.w3.org/2000/svg">
<path d="M37.6577 8.71241C37.3193 8.12612 36.8348 7.63754 36.2513 7.29433C35.6679 6.95111 35.0054 6.76498 34.3286 6.75408H9.26189L8.12606 2.32825C8.0113 1.90101 7.75527 1.52522 7.39967 1.26207C7.04406 0.998928 6.60984 0.863934 6.16772 0.879078H2.25106C1.73168 0.879078 1.23357 1.0854 0.866307 1.45266C0.499048 1.81992 0.292725 2.31803 0.292725 2.83741C0.292725 3.35679 0.499048 3.8549 0.866307 4.22216C1.23357 4.58942 1.73168 4.79575 2.25106 4.79575H4.67939L10.0844 24.8882C10.1991 25.3155 10.4552 25.6913 10.8108 25.9544C11.1664 26.2176 11.6006 26.3526 12.0427 26.3374H29.6677C30.0294 26.3363 30.3836 26.2351 30.6913 26.045C30.9989 25.8549 31.2479 25.5833 31.4106 25.2603L37.834 12.4137C38.1124 11.8301 38.242 11.1867 38.2112 10.5409C38.1805 9.89504 37.9903 9.26687 37.6577 8.71241Z" fill="#00504B"/>
<path d="M11.0636 36.1292C12.6859 36.1292 14.0011 34.814 14.0011 33.1917C14.0011 31.5693 12.6859 30.2542 11.0636 30.2542C9.44122 30.2542 8.12606 31.5693 8.12606 33.1917C8.12606 34.814 9.44122 36.1292 11.0636 36.1292Z" fill="#00504B"/>
<path d="M30.6469 36.1292C32.2692 36.1292 33.5844 34.814 33.5844 33.1917C33.5844 31.5693 32.2692 30.2542 30.6469 30.2542C29.0246 30.2542 27.7094 31.5693 27.7094 33.1917C27.7094 34.814 29.0246 36.1292 30.6469 36.1292Z" fill="#00504B"/>
</svg>
