<svg width="120" height="61" fill="none" xmlns="http://www.w3.org/2000/svg"><path fill-rule="evenodd" clip-rule="evenodd" d="M8.232 23.21h25.425l.98 11.468 4.185 7.33 8.037 7.91 11.822 6.06-15.823-1.705-7.71-3.194-9.566-5.66-9.675-9.072-7.675-13.136zm86.295 0h17.241l-11.385 17.854-12.14 8.008-7.646 4.547-10.393 2.08-8.885.279 11.822-6.06 8.037-7.91L86.49 30.83l.293-7.62h7.744zM49.14 34.709l8.145 8.17L60 47.149l3.556-5.618 8.25-6.896 3.896 7.935-6.174 6.562L60 55.967l-12.254-8.79-6.714-8.336-3.228-9.153 11.336 5.02zM36.282 54.72l10.28 2.434 9.834.159-7.457 2.669-8.765.052-16.241-2.667-10.82-5.098L0 39.516l10.276-3.938 6.6 7.494 7.803 5.642 11.603 6.007zm73.442-19.143L120 39.516 106.886 52.27l-11.983 5.643-15.077 2.122-7.237-.043-8.985-2.678 7.254-.118 8.968-1.313 12.988-5.528 6.577-3.257 3.732-4.026 6.601-7.494z" fill="#0FC1AF"/><path fill-rule="evenodd" clip-rule="evenodd" d="M8.232 23.21h25.425l-8.33 9.434-17.095-9.433z" fill="#41C1C3"/><path fill-rule="evenodd" clip-rule="evenodd" d="M111.768 23.21H94.527l-3.064 11.152 20.305-11.151z" fill="#0FC1AF"/><path fill-rule="evenodd" clip-rule="evenodd" d="M8.232 23.21l7.675 13.137 9.42-3.703-17.095-9.433z" fill="#25A8A8"/><path fill-rule="evenodd" clip-rule="evenodd" d="M111.768 23.21l-11.385 17.854-8.92-6.702 20.305-11.151z" fill="#039583"/><path fill-rule="evenodd" clip-rule="evenodd" d="M0 39.515L13.113 52.27l.181-5.823L0 39.515z" fill="#0FC1AF"/><path fill-rule="evenodd" clip-rule="evenodd" d="M120 39.515L106.887 52.27l-.182-5.823L120 39.515z" fill="#039583"/><path fill-rule="evenodd" clip-rule="evenodd" d="M34.638 34.678l-.981-11.467-8.33 9.433 9.31 2.034z" fill="#00504B"/><path fill-rule="evenodd" clip-rule="evenodd" d="M86.49 30.831l.293-7.62 4.68 11.151-4.974-3.53z" fill="#003A34"/><path fill-rule="evenodd" clip-rule="evenodd" d="M34.638 34.678l-9.056 10.74-.255-12.774 9.31 2.034z" fill="#036762"/><path fill-rule="evenodd" clip-rule="evenodd" d="M86.49 30.831l-5.312 11.176 10.285-7.645-4.974-3.53z" fill="#00504B"/><path fill-rule="evenodd" clip-rule="evenodd" d="M25.582 45.419l-9.675-9.072 9.42-3.703.255 12.775z" fill="#0F8380"/><path fill-rule="evenodd" clip-rule="evenodd" d="M84.925 45.997l15.458-4.933-8.92-6.702-6.538 11.635z" fill="#0CB19A"/><path fill-rule="evenodd" clip-rule="evenodd" d="M34.638 34.678l-9.056 10.74 11.311.362-2.255-11.102z" fill="#41C1C3"/><path fill-rule="evenodd" clip-rule="evenodd" d="M34.638 34.678l4.184 7.33-1.929 3.772-2.255-11.102z" fill="#25A8A8"/><path fill-rule="evenodd" clip-rule="evenodd" d="M81.178 42.007l3.747 3.99 6.538-11.635-10.285 7.645z" fill="#0F8380"/><path fill-rule="evenodd" clip-rule="evenodd" d="M35.147 51.08l-9.565-5.662 11.311.361-1.746 5.3z" fill="#003A34"/><path fill-rule="evenodd" clip-rule="evenodd" d="M88.243 49.072l12.14-8.008-15.458 4.933 3.318 3.075z" fill="#0F8380"/><path fill-rule="evenodd" clip-rule="evenodd" d="M42.858 54.273l-7.71-3.193 1.745-5.3 5.965 8.493z" fill="#00504B"/><path fill-rule="evenodd" clip-rule="evenodd" d="M80.597 53.619l7.646-4.547-3.318-3.075-4.328 7.622z" fill="#0F8380"/><path fill-rule="evenodd" clip-rule="evenodd" d="M42.858 54.273l-4.036-12.266-1.929 3.773 5.965 8.493z" fill="#128480"/><path fill-rule="evenodd" clip-rule="evenodd" d="M42.858 54.273l4.001-4.355-8.037-7.91 4.036 12.265z" fill="#003A34"/><path fill-rule="evenodd" clip-rule="evenodd" d="M84.925 45.998l-11.784 3.92 8.037-7.91 3.747 3.99z" fill="#00504B"/><path fill-rule="evenodd" clip-rule="evenodd" d="M42.858 54.273l4.001-4.355 11.822 6.06-15.823-1.705zm27.346 1.425l2.937-5.78-11.822 6.06 8.885-.28z" fill="#0F8380"/><path fill-rule="evenodd" clip-rule="evenodd" d="M0 39.516l10.276-3.938 3.018 10.87L0 39.516z" fill="#09897E"/><path fill-rule="evenodd" clip-rule="evenodd" d="M120 39.516l-10.276-3.938-3.019 10.87L120 39.516z" fill="#0FC1AF"/><path fill-rule="evenodd" clip-rule="evenodd" d="M16.877 43.072l-6.6-7.494 3.017 10.87 3.583-3.376zm86.246 0l6.601-7.494-3.019 10.87-7.314.65 3.732-4.026z" fill="#00504B"/><path fill-rule="evenodd" clip-rule="evenodd" d="M16.877 43.071l7.802 5.643-11.385-2.267 3.583-3.376z" fill="#036762"/><path fill-rule="evenodd" clip-rule="evenodd" d="M23.933 57.368l.746-8.654-11.385-2.267 10.639 10.921z" fill="#00B1A5"/><path fill-rule="evenodd" clip-rule="evenodd" d="M92.884 53.778l-.07-3.423 6.577-3.256 2.332 3.26-8.84 3.42z" fill="#0FC1AF"/><path fill-rule="evenodd" clip-rule="evenodd" d="M23.933 57.368l-10.82-5.098.181-5.823 10.639 10.921z" fill="#33F3EB"/><path fill-rule="evenodd" clip-rule="evenodd" d="M94.903 57.913l11.983-5.643-5.163-1.912-6.82 7.555z" fill="#00504B"/><path fill-rule="evenodd" clip-rule="evenodd" d="M23.933 57.368l.746-8.654 11.603 6.007-12.35 2.648z" fill="#09897E"/><path fill-rule="evenodd" clip-rule="evenodd" d="M92.884 53.778l-.07-3.423-12.988 5.527 13.058-2.104z" fill="#0F8380"/><path fill-rule="evenodd" clip-rule="evenodd" d="M23.933 57.368l16.241 2.667-3.892-5.314-12.35 2.647z" fill="#003A34"/><path fill-rule="evenodd" clip-rule="evenodd" d="M94.903 57.913l-15.077 2.122 13.058-6.257 2.019 4.135zm-48.341-.758l-6.388 2.88-3.892-5.314 10.28 2.434z" fill="#0F8380"/><path fill-rule="evenodd" clip-rule="evenodd" d="M72.589 59.992l7.237.043v-4.153l-7.237 4.11z" fill="#216D67"/><path fill-rule="evenodd" clip-rule="evenodd" d="M46.562 57.155l-6.388 2.88 8.765-.052-2.377-2.828z" fill="#0FC1AF"/><path fill-rule="evenodd" clip-rule="evenodd" d="M79.826 55.882l-8.968 1.314 1.731 2.796 7.237-4.11z" fill="#328A88"/><path fill-rule="evenodd" clip-rule="evenodd" d="M46.562 57.155l9.834.16-7.457 2.668-2.377-2.828z" fill="#17736F"/><path fill-rule="evenodd" clip-rule="evenodd" d="M70.858 57.196l-7.254.117 8.985 2.679-1.73-2.796z" fill="#20534C"/><path fill-rule="evenodd" clip-rule="evenodd" d="M60 55.967l-9.026-12.81L60 47.15v8.817z" fill="#33F3EB"/><path fill-rule="evenodd" clip-rule="evenodd" d="M60 55.967l-9.025-12.81-3.229 4.02L60 55.967z" fill="#00B1A5"/><path fill-rule="evenodd" clip-rule="evenodd" d="M60 55.966l7.296-10.355 2.232 3.52L60 55.967z" fill="#00504B"/><path fill-rule="evenodd" clip-rule="evenodd" d="M57.285 42.878l-6.31.28L60 47.15l-2.715-4.272z" fill="#15D3B3"/><path fill-rule="evenodd" clip-rule="evenodd" d="M63.556 41.532l3.74 4.08L60 47.15l3.556-5.618z" fill="#16D3B3"/><path fill-rule="evenodd" clip-rule="evenodd" d="M57.285 42.877l-6.31.28-1.835-8.45 8.145 8.17z" fill="#036762"/><path fill-rule="evenodd" clip-rule="evenodd" d="M63.556 41.532l3.74 4.08 4.509-10.976-8.249 6.896z" fill="#0CB19A"/><path fill-rule="evenodd" clip-rule="evenodd" d="M41.032 38.84l9.943 4.316-1.835-8.448-8.108 4.132z" fill="#09897E"/><path fill-rule="evenodd" clip-rule="evenodd" d="M75.702 42.57l-8.406 3.041 4.509-10.975 3.897 7.934zm-34.67-3.73l-3.228-9.152 11.336 5.02-8.108 4.132z" fill="#00504B"/><path fill-rule="evenodd" clip-rule="evenodd" d="M41.032 38.84l9.943 4.317-3.229 4.02-6.714-8.336z" fill="#0FC1AF"/><path fill-rule="evenodd" clip-rule="evenodd" d="M75.702 42.57l-8.406 3.041 2.232 3.52 6.174-6.56z" fill="#003A34"/><path fill-rule="evenodd" clip-rule="evenodd" d="M70.204 55.698l2.937-5.78 7.456 3.701-10.393 2.08z" fill="#0FC1AF"/><path fill-rule="evenodd" clip-rule="evenodd" d="M94.527 23.21h-7.744l4.68 11.152 3.064-11.151zM60 55.966l7.296-10.355L60 47.149v8.817z" fill="#0F8380"/><path fill-rule="evenodd" clip-rule="evenodd" d="M84.925 45.997l-11.784 3.92 7.456 3.702 4.328-7.622zm21.78.45l.181 5.823-5.163-1.912 4.982-3.91z" fill="#003A34"/><path fill-rule="evenodd" clip-rule="evenodd" d="M79.826 55.883v4.152l13.058-6.257-13.058 2.105z" fill="#10504A"/><path fill-rule="evenodd" clip-rule="evenodd" d="M94.903 57.913l6.82-7.555-8.84 3.42 2.02 4.135z" fill="#0F8380"/><path fill-rule="evenodd" clip-rule="evenodd" d="M106.705 46.447l-7.314.651 2.332 3.26 4.982-3.91z" fill="#108380"/><path fill-rule="evenodd" clip-rule="evenodd" d="M68.625 1.87l4.862 3.696-7.802 4.288L60 16.148l-5.686-6.296-7.801-4.287 4.862-3.696L60 0l8.625 1.87zm-15.84 9.899l4.318 4.43L60 21.857l2.897-5.658 4.317-4.43 7.173-4.835 5.363 8.613-10.028 4.547-5.847 4.342L60 28.841l-3.875-4.405-5.848-4.341-10.027-4.548 5.363-8.613 7.172 4.835zm-7.435 8.476l6.824 3.783 4.014 4.273L60 33.97l3.811-5.67 4.014-4.273 6.825-3.783 5.814-2.567 2.305 10.151-3.27.798-9.35 3.92-6.154 4.644L60 41.845l-3.995-4.654-6.154-4.644-9.35-3.92-3.27-.798 2.305-10.151 5.814 2.567z" fill="#FFB53C"/><path fill-rule="evenodd" clip-rule="evenodd" d="M60 41.845l-3.995-4.654L60 33.971v7.874z" fill="#FA9604"/><path fill-rule="evenodd" clip-rule="evenodd" d="M60 41.845l3.995-4.654L60 33.971v7.874z" fill="#C16C05"/><path fill-rule="evenodd" clip-rule="evenodd" d="M53.056 30.414l2.949 6.776L60 33.97l-6.944-3.556z" fill="#FFB53C"/><path fill-rule="evenodd" clip-rule="evenodd" d="M66.944 30.414l-2.949 6.776L60 33.97l6.944-3.556z" fill="#7E3E00"/><path fill-rule="evenodd" clip-rule="evenodd" d="M53.056 30.414l3.132-2.113L60 33.97l-6.944-3.557z" fill="#FF9F12"/><path fill-rule="evenodd" clip-rule="evenodd" d="M66.944 30.414l-3.133-2.113L60 33.97l6.944-3.557z" fill="#9E5200"/><path fill-rule="evenodd" clip-rule="evenodd" d="M53.056 30.414l2.949 6.776-6.154-4.643 3.205-2.133z" fill="#C16A01"/><path fill-rule="evenodd" clip-rule="evenodd" d="M66.944 30.414l-2.949 6.776 6.154-4.643-3.205-2.133z" fill="#BF6904"/><path fill-rule="evenodd" clip-rule="evenodd" d="M53.056 30.414L40.5 28.627l9.35 3.92 3.206-2.133z" fill="#C47213"/><path fill-rule="evenodd" clip-rule="evenodd" d="M66.944 30.414l12.555-1.787-9.35 3.92-3.205-2.133z" fill="#FFAD33"/><path fill-rule="evenodd" clip-rule="evenodd" d="M53.056 30.415l3.132-2.114-4.014-4.273.882 6.387z" fill="#F37900"/><path fill-rule="evenodd" clip-rule="evenodd" d="M66.944 30.415L63.81 28.3l4.014-4.273-.881 6.387z" fill="#C07014"/><path fill-rule="evenodd" clip-rule="evenodd" d="M53.056 30.414L45.35 20.245l6.824 3.783.882 6.386z" fill="#C16900"/><path fill-rule="evenodd" clip-rule="evenodd" d="M66.944 30.414l7.706-10.169-6.825 3.783-.881 6.386z" fill="#FF9903"/><path fill-rule="evenodd" clip-rule="evenodd" d="M53.056 30.414L45.35 20.245l-4.85 8.382 12.556 1.787z" fill="#9E5200"/><path fill-rule="evenodd" clip-rule="evenodd" d="M66.944 30.414l7.706-10.169 4.85 8.382-12.556 1.787zM39.536 17.678l5.814 2.567-4.85 8.382-.964-10.95z" fill="#FFB53C"/><path fill-rule="evenodd" clip-rule="evenodd" d="M80.464 17.678l-5.814 2.567 4.85 8.382.964-10.95z" fill="#C16900"/><path fill-rule="evenodd" clip-rule="evenodd" d="M39.536 17.678l-2.305 10.15 3.27.8-.965-10.95z" fill="#FF9D0C"/><path fill-rule="evenodd" clip-rule="evenodd" d="M80.464 17.678l2.305 10.15-3.27.8.965-10.95z" fill="#86470A"/><path fill-rule="evenodd" clip-rule="evenodd" d="M52.965 18.116L40.25 15.547l5.363-8.613 7.352 11.182z" fill="#FF9903"/><path fill-rule="evenodd" clip-rule="evenodd" d="M67.035 18.116l12.715-2.569-5.363-8.613-7.352 11.182z" fill="#FFB53C"/><path fill-rule="evenodd" clip-rule="evenodd" d="M60 8.085L46.513 5.566l4.862-3.695L60 8.085z" fill="#FF9903"/><path fill-rule="evenodd" clip-rule="evenodd" d="M60 8.085l13.487-2.519-4.862-3.695L60 8.085z" fill="#E28000"/><path fill-rule="evenodd" clip-rule="evenodd" d="M52.965 18.116l-.18-6.347-7.172-4.835 7.352 11.182z" fill="#FFB53C"/><path fill-rule="evenodd" clip-rule="evenodd" d="M67.035 18.116l.179-6.347 7.173-4.835-7.352 11.182zm-14.07 0l-.18-6.347 4.318 4.43-4.138 1.917z" fill="#DF7500"/><path fill-rule="evenodd" clip-rule="evenodd" d="M67.035 18.116l.179-6.347-4.317 4.43 4.138 1.917z" fill="#BE6C0C"/><path fill-rule="evenodd" clip-rule="evenodd" d="M52.965 18.116L60 21.856 57.103 16.2l-4.138 1.917z" fill="#C16900"/><path fill-rule="evenodd" clip-rule="evenodd" d="M67.035 18.116L60 21.856l2.897-5.657 4.138 1.917z" fill="#A05707"/><path fill-rule="evenodd" clip-rule="evenodd" d="M52.965 18.116l-12.715-2.57 10.027 4.548 2.688-1.978z" fill="#C36E08"/><path fill-rule="evenodd" clip-rule="evenodd" d="M67.035 18.116l12.715-2.57-10.028 4.548-2.687-1.978z" fill="#FF9903"/><path fill-rule="evenodd" clip-rule="evenodd" d="M52.965 18.116l3.16 6.32-5.848-4.341 2.688-1.979z" fill="#7F3F01"/><path fill-rule="evenodd" clip-rule="evenodd" d="M67.035 18.116l-3.16 6.32 5.847-4.341-2.687-1.979z" fill="#C06A05"/><path fill-rule="evenodd" clip-rule="evenodd" d="M52.965 18.116L60 21.857l-3.875 2.58-3.16-6.32z" fill="#9E5200"/><path fill-rule="evenodd" clip-rule="evenodd" d="M67.035 18.116L60 21.857l3.875 2.58 3.16-6.32z" fill="#7E3E00"/><path fill-rule="evenodd" clip-rule="evenodd" d="M60 21.857l-3.875 2.58L60 28.84v-6.984zm0 0l3.875 2.58L60 28.84v-6.984z" fill="#C16900"/><path fill-rule="evenodd" clip-rule="evenodd" d="M60 0l-8.625 1.87L60 8.085V0z" fill="#FFB53C"/><path fill-rule="evenodd" clip-rule="evenodd" d="M60 0l8.625 1.87L60 8.085V0z" fill="#FF9903"/><path fill-rule="evenodd" clip-rule="evenodd" d="M60 8.085l-13.487-2.52 7.801 4.288L60 8.085z" fill="#E28000"/><path fill-rule="evenodd" clip-rule="evenodd" d="M60 8.085l13.487-2.52-7.802 4.288L60 8.085zm0 8.064l-5.686-6.296L60 8.085v8.064z" fill="#C16900"/><path fill-rule="evenodd" clip-rule="evenodd" d="M60 16.149l5.685-6.296L60 8.085v8.064z" fill="#9E5200"/></svg>