<svg width="120" height="61" viewBox="0 0 120 61" fill="none" xmlns="http://www.w3.org/2000/svg">
<path fill-rule="evenodd" clip-rule="evenodd" d="M8.2318 23.2109H33.6571L34.6379 34.6776L38.8218 42.0073L46.8592 49.918L58.6811 55.978L42.8582 54.2727L35.1471 51.0794L25.582 45.4183L15.907 36.3471L8.2318 23.2109ZM94.5268 23.2109H111.768L100.383 41.0641L88.2434 49.0724L80.5971 53.6193L70.2038 55.6983L61.3188 55.978L73.1407 49.918L81.1781 42.0073L86.4895 30.8314L86.7827 23.2109H94.5268ZM49.1403 34.7078L57.2847 42.8776L59.9997 47.1493L63.5563 41.5313L71.8051 34.6354L75.7017 42.5699L69.5281 49.1316L59.9997 55.9665L47.7463 47.1764L41.0321 38.8406L37.8037 29.6882L49.1403 34.7078ZM36.2819 54.7211L46.5618 57.1546L56.3963 57.3137L48.9394 59.9829L40.174 60.0351L23.9329 57.3683L13.113 52.2703L0 39.5156L10.2762 35.5781L16.8768 43.0716L24.6793 48.7139L36.2819 54.7211ZM109.724 35.5781L120 39.5156L106.886 52.2703L94.9028 57.913L79.8259 60.0351L72.5892 59.992L63.6036 57.3137L70.8582 57.1963L79.8259 55.8826L92.8143 50.355L99.391 47.0984L103.123 43.0716L109.724 35.5781Z" fill="#0FC1AF"/>
<path fill-rule="evenodd" clip-rule="evenodd" d="M8.23169 23.2109H33.6569L25.3268 32.644L8.23169 23.2109Z" fill="#41C1C3"/>
<path fill-rule="evenodd" clip-rule="evenodd" d="M111.768 23.2109H94.5267L91.4634 34.3621L111.768 23.2109Z" fill="#0FC1AF"/>
<path fill-rule="evenodd" clip-rule="evenodd" d="M8.23169 23.2109L15.9069 36.3471L25.3268 32.644L8.23169 23.2109Z" fill="#25A8A8"/>
<path fill-rule="evenodd" clip-rule="evenodd" d="M111.768 23.2109L100.383 41.0641L91.4634 34.3621L111.768 23.2109Z" fill="#039583"/>
<path fill-rule="evenodd" clip-rule="evenodd" d="M0 39.5154L13.113 52.27L13.2945 46.4475L0 39.5154Z" fill="#0FC1AF"/>
<path fill-rule="evenodd" clip-rule="evenodd" d="M120 39.5154L106.887 52.27L106.705 46.4475L120 39.5154Z" fill="#039583"/>
<path fill-rule="evenodd" clip-rule="evenodd" d="M34.6376 34.6776L33.6568 23.2109L25.3267 32.644L34.6376 34.6776Z" fill="#00504B"/>
<path fill-rule="evenodd" clip-rule="evenodd" d="M86.4894 30.8314L86.7826 23.2109L91.4634 34.3621L86.4894 30.8314Z" fill="#003A34"/>
<path fill-rule="evenodd" clip-rule="evenodd" d="M34.6376 34.6779L25.5818 45.4186L25.3267 32.6443L34.6376 34.6779Z" fill="#036762"/>
<path fill-rule="evenodd" clip-rule="evenodd" d="M86.4892 30.8311L81.1779 42.007L91.4633 34.3618L86.4892 30.8311Z" fill="#00504B"/>
<path fill-rule="evenodd" clip-rule="evenodd" d="M25.582 45.4186L15.907 36.3474L25.3269 32.6443L25.582 45.4186Z" fill="#0F8380"/>
<path fill-rule="evenodd" clip-rule="evenodd" d="M84.9253 45.9972L100.383 41.0638L91.4634 34.3618L84.9253 45.9972Z" fill="#0CB19A"/>
<path fill-rule="evenodd" clip-rule="evenodd" d="M34.6378 34.6777L25.5819 45.4185L36.8932 45.7798L34.6378 34.6777Z" fill="#41C1C3"/>
<path fill-rule="evenodd" clip-rule="evenodd" d="M34.6379 34.6777L38.8219 42.0074L36.8933 45.7798L34.6379 34.6777Z" fill="#25A8A8"/>
<path fill-rule="evenodd" clip-rule="evenodd" d="M81.1779 42.007L84.9251 45.9972L91.4633 34.3618L81.1779 42.007Z" fill="#0F8380"/>
<path fill-rule="evenodd" clip-rule="evenodd" d="M35.1471 51.0791L25.5819 45.418L36.8932 45.7793L35.1471 51.0791Z" fill="#003A34"/>
<path fill-rule="evenodd" clip-rule="evenodd" d="M88.2433 49.0723L100.383 41.064L84.9253 45.9974L88.2433 49.0723Z" fill="#0F8380"/>
<path fill-rule="evenodd" clip-rule="evenodd" d="M42.8581 54.2728L35.1471 51.0796L36.8932 45.7798L42.8581 54.2728Z" fill="#00504B"/>
<path fill-rule="evenodd" clip-rule="evenodd" d="M80.597 53.6189L88.2432 49.072L84.9253 45.9971L80.597 53.6189Z" fill="#0F8380"/>
<path fill-rule="evenodd" clip-rule="evenodd" d="M42.8581 54.2727L38.8217 42.0073L36.8932 45.7797L42.8581 54.2727Z" fill="#128480"/>
<path fill-rule="evenodd" clip-rule="evenodd" d="M42.8582 54.2727L46.8591 49.918L38.8218 42.0073L42.8582 54.2727Z" fill="#003A34"/>
<path fill-rule="evenodd" clip-rule="evenodd" d="M84.9253 45.9975L73.1406 49.918L81.178 42.0073L84.9253 45.9975Z" fill="#00504B"/>
<path fill-rule="evenodd" clip-rule="evenodd" d="M42.858 54.2727L46.859 49.918L58.6809 55.978L42.858 54.2727Z" fill="#0F8380"/>
<path fill-rule="evenodd" clip-rule="evenodd" d="M70.2035 55.6983L73.1405 49.918L61.3186 55.978L70.2035 55.6983Z" fill="#0F8380"/>
<path fill-rule="evenodd" clip-rule="evenodd" d="M0 39.5158L10.2762 35.5784L13.2945 46.448L0 39.5158Z" fill="#09897E"/>
<path fill-rule="evenodd" clip-rule="evenodd" d="M120 39.5158L109.724 35.5784L106.705 46.448L120 39.5158Z" fill="#0FC1AF"/>
<path fill-rule="evenodd" clip-rule="evenodd" d="M16.8767 43.0718L10.2761 35.5784L13.2944 46.448L16.8767 43.0718Z" fill="#00504B"/>
<path fill-rule="evenodd" clip-rule="evenodd" d="M103.123 43.0718L109.724 35.5784L106.705 46.448L99.391 47.0986L103.123 43.0718Z" fill="#00504B"/>
<path fill-rule="evenodd" clip-rule="evenodd" d="M16.8767 43.0713L24.6792 48.7136L13.2944 46.4475L16.8767 43.0713Z" fill="#036762"/>
<path fill-rule="evenodd" clip-rule="evenodd" d="M23.9328 57.368L24.6792 48.7136L13.2944 46.4475L23.9328 57.368Z" fill="#00B1A5"/>
<path fill-rule="evenodd" clip-rule="evenodd" d="M92.8836 53.7784L92.8142 50.3554L99.3909 47.0989L101.723 50.3586L92.8836 53.7784Z" fill="#0FC1AF"/>
<path fill-rule="evenodd" clip-rule="evenodd" d="M23.9328 57.368L13.1129 52.27L13.2945 46.4475L23.9328 57.368Z" fill="#33F3EB"/>
<path fill-rule="evenodd" clip-rule="evenodd" d="M94.9028 57.9128L106.886 52.27L101.723 50.3579L94.9028 57.9128Z" fill="#00504B"/>
<path fill-rule="evenodd" clip-rule="evenodd" d="M23.9329 57.3685L24.6793 48.7141L36.2819 54.7214L23.9329 57.3685Z" fill="#09897E"/>
<path fill-rule="evenodd" clip-rule="evenodd" d="M92.8837 53.7777L92.8143 50.3547L79.8259 55.8824L92.8837 53.7777Z" fill="#0F8380"/>
<path fill-rule="evenodd" clip-rule="evenodd" d="M23.9329 57.3683L40.174 60.0352L36.2819 54.7212L23.9329 57.3683Z" fill="#003A34"/>
<path fill-rule="evenodd" clip-rule="evenodd" d="M94.9028 57.9129L79.8259 60.035L92.8837 53.7778L94.9028 57.9129Z" fill="#0F8380"/>
<path fill-rule="evenodd" clip-rule="evenodd" d="M46.5617 57.1547L40.1739 60.0352L36.2819 54.7212L46.5617 57.1547Z" fill="#0F8380"/>
<path fill-rule="evenodd" clip-rule="evenodd" d="M72.589 59.9917L79.8257 60.0348V55.8823L72.589 59.9917Z" fill="#216D67"/>
<path fill-rule="evenodd" clip-rule="evenodd" d="M46.5617 57.155L40.174 60.0356L48.9394 59.9833L46.5617 57.155Z" fill="#0FC1AF"/>
<path fill-rule="evenodd" clip-rule="evenodd" d="M79.8259 55.8823L70.8583 57.196L72.5892 59.9917L79.8259 55.8823Z" fill="#328A88"/>
<path fill-rule="evenodd" clip-rule="evenodd" d="M46.5618 57.155L56.3963 57.3141L48.9394 59.9833L46.5618 57.155Z" fill="#17736F"/>
<path fill-rule="evenodd" clip-rule="evenodd" d="M70.8583 57.196L63.6036 57.3134L72.5892 59.9917L70.8583 57.196Z" fill="#20534C"/>
<path fill-rule="evenodd" clip-rule="evenodd" d="M59.9996 55.9672L50.9745 43.1575L59.9996 47.15V55.9672Z" fill="#33F3EB"/>
<path fill-rule="evenodd" clip-rule="evenodd" d="M59.9997 55.9672L50.9746 43.1575L47.7462 47.177L59.9997 55.9672Z" fill="#00B1A5"/>
<path fill-rule="evenodd" clip-rule="evenodd" d="M59.9996 55.9664L67.2961 45.6108L69.528 49.1315L59.9996 55.9664Z" fill="#00504B"/>
<path fill-rule="evenodd" clip-rule="evenodd" d="M57.2846 42.8779L50.9745 43.1572L59.9996 47.1497L57.2846 42.8779Z" fill="#15D3B3"/>
<path fill-rule="evenodd" clip-rule="evenodd" d="M63.5562 41.5315L67.2961 45.6111L59.9996 47.1495L63.5562 41.5315Z" fill="#16D3B3"/>
<path fill-rule="evenodd" clip-rule="evenodd" d="M57.2847 42.8773L50.9746 43.1565L49.1403 34.7075L57.2847 42.8773Z" fill="#036762"/>
<path fill-rule="evenodd" clip-rule="evenodd" d="M63.5562 41.5317L67.2961 45.6113L71.8049 34.6357L63.5562 41.5317Z" fill="#0CB19A"/>
<path fill-rule="evenodd" clip-rule="evenodd" d="M41.0321 38.8403L50.9746 43.1565L49.1403 34.7075L41.0321 38.8403Z" fill="#09897E"/>
<path fill-rule="evenodd" clip-rule="evenodd" d="M75.7017 42.5703L67.2961 45.6113L71.805 34.6357L75.7017 42.5703Z" fill="#00504B"/>
<path fill-rule="evenodd" clip-rule="evenodd" d="M41.0321 38.8404L37.8037 29.688L49.1402 34.7076L41.0321 38.8404Z" fill="#00504B"/>
<path fill-rule="evenodd" clip-rule="evenodd" d="M41.0321 38.8408L50.9746 43.157L47.7462 47.1766L41.0321 38.8408Z" fill="#0FC1AF"/>
<path fill-rule="evenodd" clip-rule="evenodd" d="M75.7017 42.5701L67.2961 45.6111L69.5281 49.1317L75.7017 42.5701Z" fill="#003A34"/>
<path fill-rule="evenodd" clip-rule="evenodd" d="M70.2037 55.6983L73.1407 49.918L80.5972 53.6193L70.2037 55.6983Z" fill="#0FC1AF"/>
<path fill-rule="evenodd" clip-rule="evenodd" d="M94.5268 23.2109H86.7827L91.4635 34.3621L94.5268 23.2109Z" fill="#0F8380"/>
<path fill-rule="evenodd" clip-rule="evenodd" d="M59.9996 55.9664L67.2961 45.6108L59.9996 47.1492V55.9664Z" fill="#0F8380"/>
<path fill-rule="evenodd" clip-rule="evenodd" d="M84.9253 45.9971L73.1406 49.9176L80.5971 53.6189L84.9253 45.9971Z" fill="#003A34"/>
<path fill-rule="evenodd" clip-rule="evenodd" d="M106.705 46.4475L106.886 52.27L101.723 50.3579L106.705 46.4475Z" fill="#003A34"/>
<path fill-rule="evenodd" clip-rule="evenodd" d="M79.8259 55.8825V60.035L92.8837 53.7778L79.8259 55.8825Z" fill="#10504A"/>
<path fill-rule="evenodd" clip-rule="evenodd" d="M94.9027 57.9128L101.723 50.3579L92.8835 53.7777L94.9027 57.9128Z" fill="#0F8380"/>
<path fill-rule="evenodd" clip-rule="evenodd" d="M106.705 46.4475L99.391 47.0982L101.723 50.3579L106.705 46.4475Z" fill="#108380"/>
<path fill-rule="evenodd" clip-rule="evenodd" d="M68.625 1.87037L73.4873 5.56618L65.6852 9.8535L59.9997 16.1488L54.3142 9.8535L46.5126 5.56618L51.375 1.87037L59.9997 0L68.625 1.87037ZM52.7855 11.7688L57.1032 16.1987L59.9997 21.8566L62.8967 16.1987L67.2139 11.7688L74.3872 6.93354L79.7496 15.5472L69.7225 20.0945L63.8748 24.4364L59.9997 28.8406L56.1251 24.4364L50.2774 20.0945L40.2499 15.5472L45.6127 6.93354L52.7855 11.7688ZM45.3503 20.2453L52.1742 24.0278L56.1881 28.3009L59.9997 33.9707L63.8114 28.3009L67.8252 24.0278L74.6497 20.2453L80.4638 17.678L82.7688 27.8291L79.4991 28.6274L70.149 32.5474L63.9952 37.191L59.9997 41.8447L56.0047 37.191L49.8509 32.5474L40.5004 28.6274L37.2311 27.8291L39.5361 17.678L45.3503 20.2453Z" fill="#FFB53C"/>
<path fill-rule="evenodd" clip-rule="evenodd" d="M59.9998 41.8449L56.0048 37.1912L59.9998 33.9709V41.8449Z" fill="#FA9604"/>
<path fill-rule="evenodd" clip-rule="evenodd" d="M59.9996 41.8449L63.9951 37.1912L59.9996 33.9709V41.8449Z" fill="#C16C05"/>
<path fill-rule="evenodd" clip-rule="evenodd" d="M53.0563 30.4138L56.0047 37.1905L59.9998 33.9702L53.0563 30.4138Z" fill="#FFB53C"/>
<path fill-rule="evenodd" clip-rule="evenodd" d="M66.9436 30.4138L63.9951 37.1905L59.9996 33.9702L66.9436 30.4138Z" fill="#7E3E00"/>
<path fill-rule="evenodd" clip-rule="evenodd" d="M53.0563 30.4142L56.1881 28.3008L59.9998 33.9706L53.0563 30.4142Z" fill="#FF9F12"/>
<path fill-rule="evenodd" clip-rule="evenodd" d="M66.9436 30.4142L63.8113 28.3008L59.9996 33.9706L66.9436 30.4142Z" fill="#9E5200"/>
<path fill-rule="evenodd" clip-rule="evenodd" d="M53.0562 30.4138L56.0047 37.1905L49.8508 32.5469L53.0562 30.4138Z" fill="#C16A01"/>
<path fill-rule="evenodd" clip-rule="evenodd" d="M66.9436 30.4138L63.9951 37.1905L70.149 32.5469L66.9436 30.4138Z" fill="#BF6904"/>
<path fill-rule="evenodd" clip-rule="evenodd" d="M53.0562 30.4144L40.5004 28.6274L49.8509 32.5475L53.0562 30.4144Z" fill="#C47213"/>
<path fill-rule="evenodd" clip-rule="evenodd" d="M66.9437 30.4144L79.4991 28.6274L70.1491 32.5475L66.9437 30.4144Z" fill="#FFAD33"/>
<path fill-rule="evenodd" clip-rule="evenodd" d="M53.0564 30.4146L56.1883 28.3012L52.1744 24.0281L53.0564 30.4146Z" fill="#F37900"/>
<path fill-rule="evenodd" clip-rule="evenodd" d="M66.9437 30.4146L63.8114 28.3012L67.8253 24.0281L66.9437 30.4146Z" fill="#C07014"/>
<path fill-rule="evenodd" clip-rule="evenodd" d="M53.0562 30.4143L45.3502 20.2454L52.1742 24.0278L53.0562 30.4143Z" fill="#C16900"/>
<path fill-rule="evenodd" clip-rule="evenodd" d="M66.9437 30.4143L74.6497 20.2454L67.8253 24.0278L66.9437 30.4143Z" fill="#FF9903"/>
<path fill-rule="evenodd" clip-rule="evenodd" d="M53.0562 30.4143L45.3503 20.2454L40.5004 28.6274L53.0562 30.4143Z" fill="#9E5200"/>
<path fill-rule="evenodd" clip-rule="evenodd" d="M66.9437 30.4143L74.6497 20.2454L79.4991 28.6274L66.9437 30.4143Z" fill="#FFB53C"/>
<path fill-rule="evenodd" clip-rule="evenodd" d="M39.536 17.6777L45.3502 20.2451L40.5003 28.6271L39.536 17.6777Z" fill="#FFB53C"/>
<path fill-rule="evenodd" clip-rule="evenodd" d="M80.464 17.6777L74.6498 20.2451L79.4992 28.6271L80.464 17.6777Z" fill="#C16900"/>
<path fill-rule="evenodd" clip-rule="evenodd" d="M39.5361 17.6777L37.2311 27.8288L40.5004 28.6271L39.5361 17.6777Z" fill="#FF9D0C"/>
<path fill-rule="evenodd" clip-rule="evenodd" d="M80.4638 17.6777L82.7688 27.8288L79.499 28.6271L80.4638 17.6777Z" fill="#86470A"/>
<path fill-rule="evenodd" clip-rule="evenodd" d="M52.9652 18.1162L40.2498 15.5475L45.6126 6.93384L52.9652 18.1162Z" fill="#FF9903"/>
<path fill-rule="evenodd" clip-rule="evenodd" d="M67.0347 18.1162L79.7496 15.5475L74.3872 6.93384L67.0347 18.1162Z" fill="#FFB53C"/>
<path fill-rule="evenodd" clip-rule="evenodd" d="M59.9997 8.08516L46.5126 5.56641L51.3749 1.87061L59.9997 8.08516Z" fill="#FF9903"/>
<path fill-rule="evenodd" clip-rule="evenodd" d="M59.9996 8.08516L73.4872 5.56641L68.6249 1.87061L59.9996 8.08516Z" fill="#E28000"/>
<path fill-rule="evenodd" clip-rule="evenodd" d="M52.9652 18.1162L52.7855 11.7691L45.6127 6.93384L52.9652 18.1162Z" fill="#FFB53C"/>
<path fill-rule="evenodd" clip-rule="evenodd" d="M67.0347 18.1162L67.2139 11.7691L74.3872 6.93384L67.0347 18.1162Z" fill="#DF7500"/>
<path fill-rule="evenodd" clip-rule="evenodd" d="M52.9651 18.1161L52.7854 11.769L57.1031 16.199L52.9651 18.1161Z" fill="#DF7500"/>
<path fill-rule="evenodd" clip-rule="evenodd" d="M67.0346 18.1161L67.2138 11.769L62.8966 16.199L67.0346 18.1161Z" fill="#BE6C0C"/>
<path fill-rule="evenodd" clip-rule="evenodd" d="M52.9651 18.1161L59.9996 21.8569L57.103 16.199L52.9651 18.1161Z" fill="#C16900"/>
<path fill-rule="evenodd" clip-rule="evenodd" d="M67.0346 18.1161L59.9996 21.8569L62.8966 16.199L67.0346 18.1161Z" fill="#A05707"/>
<path fill-rule="evenodd" clip-rule="evenodd" d="M52.9652 18.1156L40.2498 15.5469L50.2773 20.0942L52.9652 18.1156Z" fill="#C36E08"/>
<path fill-rule="evenodd" clip-rule="evenodd" d="M67.0347 18.1156L79.7496 15.5469L69.7225 20.0942L67.0347 18.1156Z" fill="#FF9903"/>
<path fill-rule="evenodd" clip-rule="evenodd" d="M52.9652 18.1162L56.1251 24.4367L50.2773 20.0948L52.9652 18.1162Z" fill="#7F3F01"/>
<path fill-rule="evenodd" clip-rule="evenodd" d="M67.0346 18.1162L63.8748 24.4367L69.7225 20.0948L67.0346 18.1162Z" fill="#C06A05"/>
<path fill-rule="evenodd" clip-rule="evenodd" d="M52.9651 18.1162L59.9996 21.857L56.125 24.4367L52.9651 18.1162Z" fill="#9E5200"/>
<path fill-rule="evenodd" clip-rule="evenodd" d="M67.0346 18.1162L59.9996 21.857L63.8747 24.4367L67.0346 18.1162Z" fill="#7E3E00"/>
<path fill-rule="evenodd" clip-rule="evenodd" d="M59.9996 21.8567L56.125 24.4364L59.9996 28.8407V21.8567Z" fill="#C16900"/>
<path fill-rule="evenodd" clip-rule="evenodd" d="M59.9996 21.8567L63.8747 24.4364L59.9996 28.8407V21.8567Z" fill="#C16900"/>
<path fill-rule="evenodd" clip-rule="evenodd" d="M59.9996 0L51.3749 1.87037L59.9996 8.08492V0Z" fill="#FFB53C"/>
<path fill-rule="evenodd" clip-rule="evenodd" d="M59.9996 0L68.6249 1.87037L59.9996 8.08492V0Z" fill="#FF9903"/>
<path fill-rule="evenodd" clip-rule="evenodd" d="M59.9997 8.08467L46.5126 5.56592L54.3142 9.85325L59.9997 8.08467Z" fill="#E28000"/>
<path fill-rule="evenodd" clip-rule="evenodd" d="M59.9996 8.08467L73.4872 5.56592L65.6851 9.85325L59.9996 8.08467Z" fill="#C16900"/>
<path fill-rule="evenodd" clip-rule="evenodd" d="M59.9997 16.1486L54.3142 9.8533L59.9997 8.08472V16.1486Z" fill="#C16900"/>
<path fill-rule="evenodd" clip-rule="evenodd" d="M59.9996 16.1486L65.6851 9.8533L59.9996 8.08472V16.1486Z" fill="#9E5200"/>
</svg>
