<svg width="30" height="30" viewBox="0 0 30 30" fill="none" xmlns="http://www.w3.org/2000/svg">
<path d="M15 2.41064C20.7697 2.41064 25.4464 7.08743 25.4464 12.8571C25.4464 17.2714 22.3447 22.0821 16.2214 27.3406C15.881 27.6331 15.4469 27.7938 14.998 27.7934C14.5492 27.793 14.1153 27.6316 13.7754 27.3385L13.3704 26.9871C7.51823 21.8656 4.55359 17.1728 4.55359 12.8571C4.55359 7.08743 9.23037 2.41064 15 2.41064ZM15 8.83922C13.9344 8.83922 12.9125 9.26253 12.159 10.016C11.4055 10.7695 10.9822 11.7915 10.9822 12.8571C10.9822 13.9227 11.4055 14.9446 12.159 15.6981C12.9125 16.4516 13.9344 16.8749 15 16.8749C16.0656 16.8749 17.0876 16.4516 17.8411 15.6981C18.5946 14.9446 19.0179 13.9227 19.0179 12.8571C19.0179 11.7915 18.5946 10.7695 17.8411 10.016C17.0876 9.26253 16.0656 8.83922 15 8.83922Z" fill="#FF9903"/>
</svg>
