<svg width="28" height="28" viewBox="0 0 28 28" fill="none" xmlns="http://www.w3.org/2000/svg">
<g opacity="0.6">
<path d="M10.9941 7.24224e-07C9.2734 0.00092044 7.5769 0.405509 6.04096 1.18125C4.50502 1.95699 3.17249 3.08224 2.15047 4.46656C1.12845 5.85089 0.445447 7.45567 0.156355 9.15193C-0.132736 10.8482 -0.0198523 12.5886 0.485934 14.2333C0.991721 15.878 1.8763 17.3811 3.06858 18.6218C4.26086 19.8626 5.72758 20.8062 7.35086 21.3771C8.97413 21.9479 10.7087 22.13 12.4151 21.9086C14.1215 21.6872 15.7522 21.0686 17.1761 20.1025L23.9741 26.895C24.1629 27.0976 24.3906 27.2602 24.6436 27.3729C24.8966 27.4856 25.1698 27.5462 25.4467 27.5511C25.7236 27.556 25.9987 27.5051 26.2555 27.4013C26.5123 27.2976 26.7456 27.1432 26.9415 26.9474C27.1373 26.7515 27.2917 26.5182 27.3955 26.2614C27.4992 26.0046 27.5501 25.7295 27.5452 25.4526C27.5404 25.1756 27.4797 24.9025 27.367 24.6495C27.2543 24.3965 27.0918 24.1688 26.8891 23.98L20.0966 17.182C21.2204 15.5281 21.872 13.5992 21.9816 11.6026C22.0911 9.60608 21.6544 7.61743 20.7183 5.85052C19.7823 4.0836 18.3823 2.60525 16.669 1.57442C14.9556 0.543591 12.9937 -0.000724739 10.9941 7.24224e-07ZM4.11912 11C4.11912 9.17664 4.84345 7.42795 6.13276 6.13864C7.42207 4.84933 9.17076 4.125 10.9941 4.125C12.8175 4.125 14.5662 4.84933 15.8555 6.13864C17.1448 7.42795 17.8691 9.17664 17.8691 11C17.8691 12.8234 17.1448 14.572 15.8555 15.8614C14.5662 17.1507 12.8175 17.875 10.9941 17.875C9.17076 17.875 7.42207 17.1507 6.13276 15.8614C4.84345 14.572 4.11912 12.8234 4.11912 11Z" fill="#0FC1AF"/>
</g>
</svg>
