<svg>
    <symbol id="account-icon" width="39" height="39" viewBox="0 0 39 39" xmlns="http://www.w3.org/2000/svg">
        <path d="M7.8 37.0499C7.8 37.0499 4.875 37.0499 4.875 34.125C4.875 31.2 7.8 22.425 19.5 22.425C31.2 22.425 34.125 31.2 34.125 34.125C34.125 37.0499 31.2 37.0499 31.2 37.0499H7.8ZM19.5 19.5C21.8273 19.5 24.0592 18.5754 25.7049 16.9298C27.3505 15.2842 28.275 13.0522 28.275 10.725C28.275 8.39768 27.3505 6.16572 25.7049 4.52009C24.0592 2.87446 21.8273 1.94995 19.5 1.94995C17.1727 1.94995 14.9408 2.87446 13.2951 4.52009C11.6495 6.16572 10.725 8.39768 10.725 10.725C10.725 13.0522 11.6495 15.2842 13.2951 16.9298C14.9408 18.5754 17.1727 19.5 19.5 19.5Z"/>
    </symbol>
    <symbol id="caret-icon" width="39" height="37" viewBox="0 0 39 37" xmlns="http://www.w3.org/2000/svg">
        <path d="M37.6577 8.71241C37.3193 8.12612 36.8348 7.63754 36.2513 7.29433C35.6679 6.95111 35.0054 6.76498 34.3286 6.75408H9.26189L8.12606 2.32825C8.0113 1.90101 7.75527 1.52522 7.39967 1.26207C7.04406 0.998928 6.60984 0.863934 6.16772 0.879078H2.25106C1.73168 0.879078 1.23357 1.0854 0.866307 1.45266C0.499048 1.81992 0.292725 2.31803 0.292725 2.83741C0.292725 3.35679 0.499048 3.8549 0.866307 4.22216C1.23357 4.58942 1.73168 4.79575 2.25106 4.79575H4.67939L10.0844 24.8882C10.1991 25.3155 10.4552 25.6913 10.8108 25.9544C11.1664 26.2176 11.6006 26.3526 12.0427 26.3374H29.6677C30.0294 26.3363 30.3836 26.2351 30.6913 26.045C30.9989 25.8549 31.2479 25.5833 31.4106 25.2603L37.834 12.4137C38.1124 11.8301 38.242 11.1867 38.2112 10.5409C38.1805 9.89504 37.9903 9.26687 37.6577 8.71241Z"/>
        <path d="M11.0636 36.1292C12.6859 36.1292 14.0011 34.814 14.0011 33.1917C14.0011 31.5693 12.6859 30.2542 11.0636 30.2542C9.44122 30.2542 8.12606 31.5693 8.12606 33.1917C8.12606 34.814 9.44122 36.1292 11.0636 36.1292Z"/>
        <path d="M30.6469 36.1292C32.2692 36.1292 33.5844 34.814 33.5844 33.1917C33.5844 31.5693 32.2692 30.2542 30.6469 30.2542C29.0246 30.2542 27.7094 31.5693 27.7094 33.1917C27.7094 34.814 29.0246 36.1292 30.6469 36.1292Z"/>
    </symbol>
    <svg id="search-icon" width="28" height="28" viewBox="0 0 28 28" fill="none" xmlns="http://www.w3.org/2000/svg">
        <g opacity="0.6">
            <path d="M10.9941 7.24224e-07C9.2734 0.00092044 7.5769 0.405509 6.04096 1.18125C4.50502 1.95699 3.17249 3.08224 2.15047 4.46656C1.12845 5.85089 0.445447 7.45567 0.156355 9.15193C-0.132736 10.8482 -0.0198523 12.5886 0.485934 14.2333C0.991721 15.878 1.8763 17.3811 3.06858 18.6218C4.26086 19.8626 5.72758 20.8062 7.35086 21.3771C8.97413 21.9479 10.7087 22.13 12.4151 21.9086C14.1215 21.6872 15.7522 21.0686 17.1761 20.1025L23.9741 26.895C24.1629 27.0976 24.3906 27.2602 24.6436 27.3729C24.8966 27.4856 25.1698 27.5462 25.4467 27.5511C25.7236 27.556 25.9987 27.5051 26.2555 27.4013C26.5123 27.2976 26.7456 27.1432 26.9415 26.9474C27.1373 26.7515 27.2917 26.5182 27.3955 26.2614C27.4992 26.0046 27.5501 25.7295 27.5452 25.4526C27.5404 25.1756 27.4797 24.9025 27.367 24.6495C27.2543 24.3965 27.0918 24.1688 26.8891 23.98L20.0966 17.182C21.2204 15.5281 21.872 13.5992 21.9816 11.6026C22.0911 9.60608 21.6544 7.61743 20.7183 5.85052C19.7823 4.0836 18.3823 2.60525 16.669 1.57442C14.9556 0.543591 12.9937 -0.000724739 10.9941 7.24224e-07ZM4.11912 11C4.11912 9.17664 4.84345 7.42795 6.13276 6.13864C7.42207 4.84933 9.17076 4.125 10.9941 4.125C12.8175 4.125 14.5662 4.84933 15.8555 6.13864C17.1448 7.42795 17.8691 9.17664 17.8691 11C17.8691 12.8234 17.1448 14.572 15.8555 15.8614C14.5662 17.1507 12.8175 17.875 10.9941 17.875C9.17076 17.875 7.42207 17.1507 6.13276 15.8614C4.84345 14.572 4.11912 12.8234 4.11912 11Z" fill="#0FC1AF"/>
        </g>
    </svg>
</svg>

