<svg width="21" height="21" viewBox="0 0 21 21" fill="none" xmlns="http://www.w3.org/2000/svg">
<g clip-path="url(#clip0_121_1486)">
<path d="M3.89834 17.3281C3.72072 17.1298 3.50845 16.9653 3.27188 16.8427C3.02833 16.7151 2.76275 16.6346 2.48916 16.6055C2.45024 16.5997 2.41097 16.5964 2.37161 16.5959H2.23332C1.79473 16.5904 1.36474 16.7173 0.999765 16.9599C0.643848 17.1954 0.362332 17.5268 0.188 17.9156C0.12869 18.0535 0.0823932 18.1966 0.0497091 18.343C-0.0175463 18.6409 -0.0175463 18.9499 0.0497091 19.2477C0.0823338 19.3946 0.128631 19.5382 0.188 19.6765C0.365254 20.0616 0.646285 20.3901 0.999765 20.6253C1.36343 20.8698 1.79333 20.9978 2.23194 20.9921C2.40213 20.993 2.5719 20.975 2.73808 20.9383C2.89343 20.9014 3.04487 20.8497 3.19029 20.7839L3.25528 20.748C3.28876 20.728 3.32393 20.7109 3.36039 20.697L3.45719 20.6597L3.50697 20.7356C3.55241 20.8138 3.6178 20.8786 3.69651 20.9234C3.77521 20.9682 3.86441 20.9914 3.95503 20.9907C4.09215 20.9901 4.22362 20.9361 4.32151 20.8404C4.37341 20.796 4.4152 20.741 4.44406 20.6792C4.47292 20.6173 4.48819 20.5501 4.48884 20.4819V18.794C4.48684 18.5219 4.43238 18.2527 4.32842 18.0011C4.22483 17.7538 4.07934 17.5262 3.89834 17.3281ZM3.32581 19.2587C3.26472 19.3977 3.17793 19.524 3.06998 19.631C2.96125 19.7378 2.83249 19.8221 2.69106 19.8792C2.54399 19.939 2.3866 19.9695 2.22779 19.9689C2.0752 19.9686 1.92438 19.9362 1.78525 19.8737C1.64681 19.8127 1.52001 19.7283 1.41049 19.6241C1.29964 19.518 1.20959 19.3922 1.14498 19.2532C1.07706 19.1091 1.0421 18.9518 1.04263 18.7926C1.04288 18.6376 1.07587 18.4845 1.13944 18.343C1.20172 18.2025 1.28991 18.0748 1.39943 17.9666C1.50817 17.859 1.63563 17.7721 1.77558 17.7101C1.91861 17.6477 2.07304 17.6154 2.22917 17.6154C2.3853 17.6154 2.53974 17.6477 2.68277 17.7101C2.82488 17.7712 2.95431 17.8582 3.06444 17.9666C3.17393 18.0748 3.26212 18.2025 3.32443 18.343C3.388 18.4845 3.42099 18.6376 3.42123 18.7926C3.42306 18.9543 3.39054 19.1146 3.32581 19.2628V19.2587Z" fill="#FAFEFD"/>
<path d="M7.57556 16.6067C7.2832 16.6176 6.99516 16.6807 6.72507 16.7928C6.46543 16.8999 6.22776 17.0537 6.02394 17.2465C5.82663 17.4395 5.66757 17.6678 5.55513 17.9195C5.43622 18.1762 5.37533 18.4558 5.37674 18.7386V20.4954C5.37437 20.5638 5.38643 20.6319 5.41216 20.6953C5.43789 20.7588 5.47671 20.8161 5.52609 20.8636C5.57241 20.9093 5.62756 20.945 5.68819 20.9687C5.74881 20.9924 5.81365 21.0036 5.87873 21.0015C6.01697 21.0091 6.15264 20.9621 6.25626 20.8705C6.30479 20.8288 6.34411 20.7774 6.37172 20.7197C6.39934 20.6621 6.41465 20.5993 6.41669 20.5354V18.8034C6.41271 18.6426 6.44286 18.4829 6.50519 18.3346C6.56439 18.1959 6.64931 18.0695 6.75549 17.9622C6.86456 17.854 6.99405 17.7685 7.13646 17.7105C7.27888 17.6525 7.4314 17.6232 7.58523 17.6244C7.72574 17.6224 7.86023 17.5672 7.96139 17.4699C8.00946 17.4252 8.04758 17.3709 8.07331 17.3106C8.09904 17.2503 8.11179 17.1852 8.11074 17.1197C8.10158 16.9816 8.04206 16.8516 7.94341 16.7542C7.89565 16.7056 7.8383 16.6674 7.77499 16.642C7.71167 16.6166 7.64377 16.6046 7.57556 16.6067Z" fill="#FAFEFD"/>
<path d="M12.8292 19.8228C12.8016 19.7647 12.7614 19.7134 12.7117 19.6725C12.6099 19.5798 12.476 19.5304 12.3383 19.5346H12.3286C12.1903 19.5321 12.0561 19.5813 11.9525 19.6725C11.8524 19.7681 11.7332 19.8414 11.6026 19.8876C11.4513 19.9386 11.2921 19.9624 11.1324 19.9579C10.9688 19.9588 10.8069 19.9259 10.6567 19.8614C10.5133 19.7997 10.3839 19.7096 10.2764 19.5966C10.1784 19.4844 10.1024 19.3548 10.0523 19.2147C9.99979 19.0685 9.97722 18.9133 9.98597 18.7582V17.6261H11.1614C11.2287 17.6252 11.2949 17.6104 11.3561 17.5826C11.4173 17.5548 11.472 17.5147 11.5168 17.4647C11.5664 17.4186 11.6061 17.363 11.6338 17.3014C11.6615 17.2397 11.6766 17.1731 11.6781 17.1055C11.6797 17.038 11.6677 16.9708 11.6428 16.9079C11.618 16.845 11.5808 16.7877 11.5334 16.7394C11.4855 16.6904 11.4273 16.6527 11.3629 16.6288C11.2986 16.605 11.2298 16.5957 11.1614 16.6015H9.98597V15.6141C9.98853 15.5486 9.97603 15.4833 9.94943 15.4233C9.92282 15.3633 9.88281 15.3102 9.83246 15.268C9.71885 15.1751 9.5755 15.1262 9.42865 15.1301C9.28389 15.1261 9.14268 15.1752 9.03176 15.268C8.98141 15.3102 8.94139 15.3633 8.91479 15.4233C8.88818 15.4833 8.87569 15.5486 8.87826 15.6141V18.7499C8.87279 19.0672 8.93599 19.3818 9.06356 19.6725C9.18205 19.9399 9.35378 20.1806 9.56833 20.3799C9.7845 20.5781 10.0372 20.7327 10.3123 20.835C10.6021 20.9424 10.909 20.9966 11.2181 20.9949C11.5029 20.9973 11.7852 20.9419 12.0479 20.8322C12.3118 20.7192 12.5527 20.5589 12.7587 20.3592C12.8029 20.3157 12.8361 20.2623 12.8555 20.2034C12.8767 20.1409 12.8861 20.0749 12.8831 20.009C12.8779 19.9439 12.8595 19.8806 12.8292 19.8228Z" fill="#FAFEFD"/>
<path d="M20.0079 20.1208L18.672 18.7942L20.0065 17.4676C20.0525 17.4196 20.0884 17.3629 20.1121 17.3009C20.1359 17.2388 20.147 17.1727 20.1448 17.1063C20.1473 17.041 20.1363 16.9758 20.1125 16.9148C20.0888 16.8538 20.0527 16.7984 20.0065 16.7519C19.9106 16.6539 19.78 16.5975 19.6428 16.5947H19.6372C19.5737 16.5951 19.5108 16.6083 19.4526 16.6337C19.3943 16.659 19.3419 16.696 19.2984 16.7423L17.9335 18.0702L16.5976 16.7547C16.4971 16.6626 16.3686 16.6067 16.2325 16.5961C16.1641 16.5934 16.0959 16.606 16.033 16.6329C15.97 16.6599 15.9139 16.7006 15.8688 16.7519C15.7791 16.8529 15.7247 16.9802 15.7139 17.1146C15.7094 17.1769 15.7196 17.2394 15.7436 17.2971C15.7676 17.3548 15.8048 17.4061 15.8522 17.4469L17.2171 18.7928L15.8522 20.1387C15.8046 20.185 15.7675 20.241 15.7437 20.3029C15.7198 20.3648 15.7096 20.4311 15.7139 20.4973C15.7182 20.6307 15.7743 20.7572 15.8702 20.8503C15.9171 20.8995 15.9746 20.9374 16.0383 20.9613C16.102 20.9852 16.1703 20.9944 16.238 20.9882C16.3731 20.9847 16.5031 20.9361 16.6073 20.8503L17.9376 19.5292L19.2735 20.8255C19.3214 20.8787 19.38 20.9212 19.4456 20.9502C19.5111 20.9792 19.5821 20.994 19.6538 20.9937C19.7202 20.9964 19.7865 20.9856 19.8486 20.9619C19.9106 20.9382 19.9672 20.9021 20.0148 20.8558C20.0655 20.8087 20.1052 20.751 20.1313 20.687C20.1573 20.6229 20.169 20.5539 20.1655 20.4849C20.165 20.4167 20.1508 20.3494 20.1237 20.2869C20.0966 20.2243 20.0572 20.1679 20.0079 20.1208Z" fill="#FAFEFD"/>
<path d="M14.5897 16.7411C14.5566 16.7127 14.5204 16.6882 14.4818 16.668C14.4065 16.6207 14.3191 16.5963 14.2301 16.5977C14.1411 16.5963 14.0537 16.6207 13.9784 16.668C13.9398 16.6882 13.9036 16.7127 13.8705 16.7411C13.8213 16.7815 13.7816 16.8322 13.7543 16.8897C13.7271 16.9471 13.7129 17.0099 13.7129 17.0735V20.5113C13.7129 20.579 13.728 20.6458 13.7569 20.7071C13.7858 20.7684 13.8279 20.8225 13.8802 20.8657C13.975 20.9492 14.0981 20.9935 14.2246 20.9898H14.2425C14.369 20.9935 14.4921 20.9492 14.5869 20.8657C14.6392 20.8225 14.6813 20.7684 14.7102 20.7071C14.7391 20.6458 14.7542 20.579 14.7542 20.5113V17.0735C14.7534 17.0093 14.7381 16.9462 14.7097 16.8887C14.6812 16.8312 14.6402 16.7808 14.5897 16.7411Z" fill="#FAFEFD"/>
<path d="M14.6172 15.2934C14.5731 15.2448 14.519 15.2061 14.4587 15.18C14.3984 15.1538 14.3331 15.1408 14.2674 15.1417C14.1328 15.1389 14.0023 15.1883 13.9037 15.2796C13.8542 15.3225 13.8142 15.3751 13.7864 15.4343C13.7585 15.4934 13.7433 15.5577 13.7419 15.623C13.7362 15.6937 13.7455 15.7647 13.7694 15.8315C13.7932 15.8983 13.831 15.9593 13.8801 16.0105C13.9854 16.1055 14.1226 16.1576 14.2646 16.1567C14.3299 16.1572 14.3946 16.144 14.4544 16.1178C14.5142 16.0917 14.5678 16.0532 14.6117 16.005C14.7065 15.9099 14.7598 15.7812 14.7598 15.6471C14.7598 15.513 14.7065 15.3844 14.6117 15.2893L14.6172 15.2934Z" fill="#FAFEFD"/>
</g>
<g clip-path="url(#clip1_121_1486)">
<path d="M10.0786 5.5791C8.56665 5.5791 7.19214 6.95133 7.19214 8.6437C7.19422 9.26625 7.3797 9.8726 7.72271 10.3783C8.4567 9.91698 9.25254 9.59102 10.0841 9.59102C10.9157 9.59102 11.7102 9.91698 12.4455 10.3783C12.7885 9.8726 12.974 9.26625 12.9761 8.6437C12.9706 6.95133 11.5947 5.5791 10.0786 5.5791Z" fill="#FAFEFD"/>
<path d="M10.0772 0C6.36602 0 3.35721 8.31924 3.35721 12.2031C3.35721 15.2168 5.17019 11.9805 7.71579 10.3783C7.3566 9.85162 7.17079 9.21459 7.18693 8.56519C7.20308 7.91579 7.42028 7.28999 7.80514 6.78403C7.68244 7.09469 7.61935 7.42809 7.61957 7.76481C7.61957 8.45487 7.8785 9.11666 8.3394 9.6046C8.80029 10.0925 9.4254 10.3667 10.0772 10.3667C10.729 10.3667 11.3541 10.0925 11.815 9.6046C12.2759 9.11666 12.5348 8.45487 12.5348 7.76481C12.5351 7.42809 12.472 7.09469 12.3493 6.78403C12.7341 7.28999 12.9513 7.91579 12.9675 8.56519C12.9836 9.21459 12.7978 9.85162 12.4386 10.3783C14.9856 11.979 16.7972 15.2168 16.7972 12.2031C16.7972 8.32069 13.7884 0 10.0772 0Z" fill="#FAFEFD"/>
</g>
<defs>
<clipPath id="clip0_121_1486">
<rect y="15.1201" width="20.16" height="5.88" fill="white"/>
</clipPath>
<clipPath id="clip1_121_1486">
<rect x="3.36011" width="13.44" height="13.44" fill="white"/>
</clipPath>
</defs>
</svg>
