<svg width="18" height="18" viewBox="0 0 18 18" fill="none" xmlns="http://www.w3.org/2000/svg">
<path d="M8.625 0C3.86038 0 0 3.86038 0 8.625C0 13.3896 3.86038 17.25 8.625 17.25C13.3896 17.25 17.25 13.3896 17.25 8.625C17.25 3.86038 13.3896 0 8.625 0ZM11.8416 10.8856L11.1461 11.755C11.1004 11.8121 11.044 11.8596 10.98 11.8949C10.916 11.9301 10.8456 11.9524 10.773 11.9605C10.7004 11.9686 10.6269 11.9623 10.5567 11.9419C10.4865 11.9216 10.421 11.8876 10.3639 11.842L8.03377 10.1128C7.87096 9.98246 7.73954 9.81717 7.64924 9.62916C7.55894 9.44116 7.51207 9.23525 7.5121 9.02669V3.61694C7.5121 3.46936 7.57072 3.32782 7.67508 3.22346C7.77943 3.11911 7.92097 3.06048 8.06855 3.06048H9.18145C9.32903 3.06048 9.47057 3.11911 9.57492 3.22346C9.67928 3.32782 9.7379 3.46936 9.7379 3.61694V8.625L11.755 10.1031C11.8121 10.1487 11.8597 10.2052 11.8949 10.2693C11.9302 10.3333 11.9525 10.4037 11.9605 10.4764C11.9685 10.5491 11.9622 10.6226 11.9418 10.6928C11.9214 10.763 11.8874 10.8285 11.8416 10.8856Z" fill="#FF9903"/>
</svg>
