<svg><symbol id="account-icon" viewBox="0 0 39 39" xmlns="http://www.w3.org/2000/svg"><path d="M7.8 37.05s-2.925 0-2.925-2.925 2.925-11.7 14.625-11.7 14.625 8.775 14.625 11.7c0 2.925-2.925 2.925-2.925 2.925H7.8zM19.5 19.5a8.775 8.775 0 100-17.55 8.775 8.775 0 000 17.55z"/></symbol><symbol id="caret-icon" viewBox="0 0 39 37" xmlns="http://www.w3.org/2000/svg"><path d="M37.658 8.712a3.917 3.917 0 00-3.33-1.958H9.263L8.126 2.328A1.958 1.958 0 006.168.88H2.25a1.958 1.958 0 000 3.917h2.43l5.405 20.092a1.958 1.958 0 001.959 1.45h17.625a1.959 1.959 0 001.743-1.078l6.423-12.846a3.916 3.916 0 00-.176-3.702zM11.064 36.13a2.938 2.938 0 100-5.876 2.938 2.938 0 000 5.875zm19.583 0a2.938 2.938 0 100-5.876 2.938 2.938 0 000 5.875z"/></symbol><svg id="search-icon" width="28" height="28" fill="none" xmlns="http://www.w3.org/2000/svg"><path d="M10.994 0a11 11 0 106.182 20.102l6.798 6.793a2.062 2.062 0 102.915-2.915l-6.792-6.798A11 11 0 0010.994 0zM4.12 11a6.875 6.875 0 1113.75 0 6.875 6.875 0 01-13.75 0z" fill="#0FC1AF" opacity=".6"/></svg></svg>