<svg>
    <symbol id="mail" width="35" height="32" viewBox="0 0 35 32" fill="none" xmlns="http://www.w3.org/2000/svg">
        <g filter="url(#filter0_d_9_137)">
            <path fill-rule="evenodd" clip-rule="evenodd" d="M16.2 13.5024C16.14 13.5653 16.0299 13.6582 15.8799 13.7841C15.7299 13.91 15.58 14.0188 15.47 14.1127C15.36 14.2066 15.2 14.3165 15.03 14.4414C14.8704 14.5533 14.7033 14.6525 14.53 14.738C14.3678 14.8134 14.2007 14.8762 14.03 14.9258C13.8575 14.9773 13.6792 15.0035 13.5 15.0037C13.297 15.0017 13.0951 14.9701 12.9001 14.9098C12.6798 14.838 12.4683 14.7384 12.2701 14.6132C12.0601 14.4777 11.8802 14.3635 11.7402 14.2696C11.6002 14.1757 11.4302 14.0348 11.2002 13.8428C10.9702 13.6507 10.8502 13.5408 10.8102 13.4992C8.44036 11.6653 6.93709 10.4877 6.30046 9.96622C6.27288 9.94604 6.24079 9.93394 6.20745 9.93113C6.1741 9.92832 6.14074 9.9349 6.11053 9.95022C6.07747 9.96267 6.04889 9.98603 6.02911 10.0169C6.00933 10.0478 5.99928 10.0846 6.00043 10.122V16.4997C5.99963 16.6973 6.03563 16.8931 6.10626 17.0758C6.17688 17.2585 6.28077 17.4244 6.4119 17.564C6.54304 17.7035 6.69886 17.8139 6.87025 17.8887C7.04165 17.9636 7.2252 18.0014 7.41039 18H19.5998C19.7842 18 19.9667 17.9611 20.1369 17.8856C20.3071 17.8102 20.4618 17.6996 20.5918 17.5602C20.7219 17.4208 20.8249 17.2553 20.8949 17.0733C20.9649 16.8914 21.0004 16.6964 20.9996 16.4997V10.1316C21.0018 10.0934 20.9935 10.0553 20.9757 10.0219C20.958 9.9886 20.9316 9.96147 20.8997 9.94382C20.87 9.9231 20.8343 9.9148 20.7992 9.92051C20.7642 9.92622 20.7323 9.94554 20.7097 9.97476C20.0098 10.5584 18.4998 11.7364 16.2 13.5077V13.5024ZM14.0701 13.831C14.2592 13.739 14.443 13.6346 14.6201 13.5184C14.7534 13.4245 14.9534 13.2684 15.22 13.05C15.351 12.9278 15.4914 12.8179 15.6399 12.7213C18.0798 10.8248 19.7798 9.48072 20.7398 8.68898C20.8238 8.61865 20.8911 8.5282 20.9363 8.42495C20.9815 8.32169 21.0031 8.20853 20.9996 8.09464V7.5003C21.0004 7.30358 20.9649 7.10864 20.8949 6.92666C20.8249 6.74467 20.7219 6.57924 20.5918 6.43984C20.4618 6.30044 20.3071 6.18983 20.1369 6.11436C19.9667 6.03889 19.7842 6.00004 19.5998 6.00004H7.41039C7.2252 5.99862 7.04165 6.03643 6.87025 6.11127C6.69886 6.18612 6.54304 6.2965 6.4119 6.43604C6.28077 6.57558 6.17688 6.74149 6.10626 6.92418C6.03563 7.10686 5.99963 7.30268 6.00043 7.5003V8.09464C5.99655 8.20969 6.01916 8.32401 6.06622 8.42762C6.11328 8.53122 6.18339 8.62095 6.27043 8.68898C7.28038 9.52269 8.97704 10.8668 11.3603 12.7213C11.5112 12.819 11.6549 12.9289 11.7902 13.05C12.0501 13.2691 12.2501 13.4252 12.3901 13.5184C12.5649 13.6326 12.7452 13.7369 12.9301 13.831C13.1067 13.9304 13.3009 13.9889 13.5 14.0028C13.6996 13.9915 13.8944 13.9329 14.0701 13.831Z" fill="url(#paint0_linear_9_137)"/>
        </g>
        <defs>
            <filter id="filter0_d_9_137" x="0" y="0" width="35" height="32" filterUnits="userSpaceOnUse" color-interpolation-filters="sRGB">
                <feFlood flood-opacity="0" result="BackgroundImageFix"/>
                <feColorMatrix in="SourceAlpha" type="matrix" values="0 0 0 0 0 0 0 0 0 0 0 0 0 0 0 0 0 0 127 0" result="hardAlpha"/>
                <feOffset dx="4" dy="4"/>
                <feGaussianBlur stdDeviation="5"/>
                <feComposite in2="hardAlpha" operator="out"/>
                <feColorMatrix type="matrix" values="0 0 0 0 0 0 0 0 0 0 0 0 0 0 0 0 0 0 0.05 0"/>
                <feBlend mode="normal" in2="BackgroundImageFix" result="effect1_dropShadow_9_137"/>
                <feBlend mode="normal" in="SourceGraphic" in2="effect1_dropShadow_9_137" result="shape"/>
            </filter>
            <linearGradient id="paint0_linear_9_137" x1="4.96552" y1="4.5" x2="36.3018" y2="26.1443" gradientUnits="userSpaceOnUse">
                <stop stop-color="#F03A2B"/>
                <stop offset="1" stop-color="#FCC009"/>
            </linearGradient>
        </defs>
    </symbol>
    <symbol id="phone" width="12" height="12" viewBox="0 0 12 12" fill="none" xmlns="http://www.w3.org/2000/svg">
        <g filter="url(#filter0_d_28_138)">
            <path d="M11.6576 8.48143L9.03258 7.35643C8.92044 7.30864 8.79581 7.29857 8.67746 7.32773C8.5591 7.3569 8.45342 7.42372 8.37633 7.51815L7.21383 8.93846C5.38939 8.07825 3.92114 6.61 3.06094 4.78557L4.48125 3.62307C4.57586 3.54612 4.64283 3.44044 4.67201 3.32203C4.70119 3.20361 4.69099 3.07892 4.64297 2.96682L3.51797 0.341819C3.46526 0.220977 3.37204 0.122314 3.25438 0.0628418C3.13672 0.00336996 3.00199 -0.0131829 2.87344 0.0160375L0.435938 0.578537C0.311993 0.607159 0.201409 0.676946 0.122235 0.77651C0.0430606 0.876074 -2.85518e-05 0.999534 1.41942e-08 1.12674C1.41942e-08 7.13846 4.87266 12.0017 10.875 12.0017C11.0022 12.0018 11.1258 11.9588 11.2254 11.8796C11.325 11.8004 11.3948 11.6898 11.4234 11.5658L11.9859 9.1283C12.015 8.99912 11.9981 8.86385 11.9381 8.74579C11.8782 8.62772 11.779 8.53424 11.6576 8.48143Z" fill="url(#paint0_linear_28_138)"/>
        </g>
        <defs>
            <filter id="filter0_d_28_138" x="-6" y="-5.99805" width="31.9998" height="32" filterUnits="userSpaceOnUse" color-interpolation-filters="sRGB">
                <feFlood flood-opacity="0" result="BackgroundImageFix"/>
                <feColorMatrix in="SourceAlpha" type="matrix" values="0 0 0 0 0 0 0 0 0 0 0 0 0 0 0 0 0 0 127 0" result="hardAlpha"/>
                <feOffset dx="4" dy="4"/>
                <feGaussianBlur stdDeviation="5"/>
                <feComposite in2="hardAlpha" operator="out"/>
                <feColorMatrix type="matrix" values="0 0 0 0 0 0 0 0 0 0 0 0 0 0 0 0 0 0 0.05 0"/>
                <feBlend mode="normal" in2="BackgroundImageFix" result="effect1_dropShadow_28_138"/>
                <feBlend mode="normal" in="SourceGraphic" in2="effect1_dropShadow_28_138" result="shape"/>
            </filter>
            <linearGradient id="paint0_linear_28_138" x1="-0.827572" y1="-1.49802" x2="27.5394" y2="14.1767" gradientUnits="userSpaceOnUse">
                <stop stop-color="#F03A2B"/>
                <stop offset="1" stop-color="#FCC009"/>
            </linearGradient>
        </defs>
    </symbol>
    <symbol id="telegram" width="19" height="19" viewBox="0 0 19 19" xmlns="http://www.w3.org/2000/svg">
        <path d="M4.44161 9.67788L6.6257 10.4923L7.47712 13.2317C7.51414 13.4167 7.73626 13.4538 7.88433 13.3427L9.10593 12.3432C9.21699 12.2322 9.40209 12.2322 9.55016 12.3432L11.7342 13.935C11.8823 14.0461 12.1044 13.972 12.1415 13.7869L13.7703 6.01306C13.8073 5.82796 13.6222 5.64287 13.4371 5.71691L4.44161 9.19665C4.2195 9.27068 4.2195 9.60385 4.44161 9.67788ZM7.36607 10.0851L11.6602 7.45678C11.7342 7.41976 11.8083 7.53081 11.7342 7.56783L8.21749 10.8625C8.10644 10.9735 7.99538 11.1216 7.99538 11.3067L7.88433 12.1951C7.88433 12.3062 7.69923 12.3432 7.66222 12.1951L7.21799 10.5663C7.10694 10.3812 7.18098 10.1591 7.36607 10.0851Z"/>
    </symbol>
    <symbol id="viber" width="19" height="19" viewBox="0 0 19 19" xmlns="http://www.w3.org/2000/svg">
        <path d="M12.4706 5.00931C10.6601 4.66356 8.78004 4.66356 6.96957 5.00931C6.16878 5.18218 5.1591 6.15027 4.98501 6.91091C4.67166 8.39761 4.67166 9.91889 4.98501 11.4056C5.19391 12.1662 6.2036 13.1343 6.96957 13.3072C7.00438 13.3072 7.0392 13.3418 7.0392 13.3763V15.5545C7.0392 15.6583 7.17847 15.7274 7.2481 15.6237L8.29261 14.5519C8.29261 14.5519 9.12821 13.6875 9.26747 13.5492C9.26747 13.5492 9.30229 13.5146 9.33711 13.5146C10.3816 13.5492 11.4609 13.4455 12.5054 13.2726C13.3062 13.0998 14.3159 12.1317 14.49 11.371C14.8033 9.88432 14.8033 8.36304 14.49 6.87633C14.2811 6.15027 13.2714 5.18218 12.4706 5.00931ZM12.5054 11.5093C12.3313 11.8551 12.1224 12.1317 11.7743 12.3045C11.6698 12.3391 11.5654 12.3737 11.4609 12.4083C11.3217 12.3737 11.2172 12.3391 11.1128 12.3045C9.99863 11.8551 8.95412 11.2327 8.11852 10.3338C7.6659 9.81517 7.28292 9.2274 6.96957 8.60506C6.8303 8.29389 6.69103 8.01729 6.58658 7.70612C6.48213 7.42953 6.65622 7.15293 6.8303 6.94548C7.00438 6.73804 7.21329 6.59974 7.457 6.49601C7.63109 6.39229 7.80517 6.46144 7.94444 6.59974C8.22297 6.94548 8.50151 7.29123 8.71041 7.67155C8.84967 7.91357 8.81486 8.19017 8.57114 8.36304C8.5015 8.39761 8.46669 8.43219 8.39705 8.50134C8.36224 8.53591 8.2926 8.57049 8.25779 8.63963C8.18815 8.74336 8.18815 8.84708 8.22297 8.95081C8.5015 9.74602 9.02376 10.3684 9.82454 10.7141C9.96381 10.7833 10.0683 10.8178 10.2423 10.8178C10.4861 10.7833 10.5905 10.5067 10.7646 10.3684C10.9387 10.2301 11.1476 10.2301 11.3565 10.3338C11.5306 10.4375 11.7046 10.5758 11.9135 10.7141C12.0876 10.8524 12.2617 10.9561 12.4358 11.0944C12.5402 11.1636 12.5751 11.3364 12.5054 11.5093ZM11.0431 8.91623C10.9735 8.91623 11.0083 8.91623 11.0431 8.91623C10.9039 8.91623 10.869 8.84708 10.8342 8.74336C10.8342 8.67421 10.8342 8.57049 10.7994 8.50134C10.7646 8.36304 10.695 8.22474 10.5557 8.12102C10.4861 8.08644 10.4164 8.05187 10.3468 8.01729C10.2423 7.98272 10.1727 7.98272 10.0683 7.98272C9.96381 7.94814 9.92899 7.879 9.92899 7.77527C9.92899 7.70612 10.0334 7.63697 10.1031 7.63697C10.6601 7.67155 11.0779 7.98272 11.1476 8.63963C11.1476 8.67421 11.1476 8.74336 11.1476 8.77793C11.1476 8.84708 11.1128 8.91623 11.0431 8.91623ZM10.695 7.39495C10.5209 7.3258 10.3468 7.25665 10.1379 7.22208C10.0683 7.22208 9.96381 7.1875 9.89418 7.1875C9.78973 7.1875 9.72009 7.11836 9.75491 7.01463C9.75491 6.91091 9.82454 6.84176 9.92899 6.87633C10.2772 6.91091 10.5905 6.98006 10.9039 7.11836C11.5306 7.42953 11.8787 7.94814 11.9832 8.63963C11.9832 8.67421 11.9832 8.70878 11.9832 8.74336C11.9832 8.81251 11.9832 8.88166 11.9832 8.98538C11.9832 9.01995 11.9832 9.05453 11.9832 9.0891C11.9484 9.2274 11.7046 9.26198 11.6698 9.0891C11.6698 9.05453 11.635 8.98538 11.635 8.95081C11.635 8.63964 11.5654 8.32846 11.4261 8.05187C11.2172 7.7407 10.9735 7.53325 10.695 7.39495ZM12.5751 9.46942C12.4706 9.46942 12.401 9.3657 12.401 9.26198C12.401 9.05453 12.3662 8.84708 12.3313 8.63963C12.1921 7.53325 11.2868 6.63431 10.2075 6.46144C10.0334 6.42686 9.85936 6.42686 9.72009 6.39229C9.61564 6.39229 9.47637 6.39229 9.44156 6.25399C9.40674 6.15027 9.51119 6.04655 9.61564 6.04655C9.65046 6.04655 9.68528 6.04655 9.68528 6.04655C11.1128 6.08112 9.75491 6.04655 9.68528 6.04655C11.1476 6.08112 12.3662 7.04921 12.6099 8.50134C12.6447 8.74336 12.6795 8.98538 12.6795 9.26198C12.7492 9.3657 12.6795 9.46942 12.5751 9.46942Z"/>
    </symbol>
    <symbol id="whatsapp" width="19" height="19" viewBox="0 0 19 19" xmlns="http://www.w3.org/2000/svg">
        <path d="M13.2652 5.72959C12.3268 4.79443 11.0755 4.2749 9.75482 4.2749C7.00908 4.2749 4.78469 6.49157 4.78469 9.22777C4.78469 10.0937 5.02799 10.9595 5.44506 11.6869L4.74994 14.2499L7.3914 13.5572C8.12128 13.9382 8.92067 14.146 9.75482 14.146C12.5005 14.146 14.7249 11.9293 14.7249 9.19313C14.6902 7.91162 14.2036 6.66475 13.2652 5.72959ZM12.153 10.9942C12.0487 11.2713 11.5621 11.5483 11.3188 11.583C11.1103 11.6176 10.8323 11.6176 10.5542 11.5483C10.3804 11.4791 10.1371 11.4098 9.85909 11.2713C8.60787 10.7517 7.80848 9.50485 7.73896 9.40094C7.66945 9.33167 7.21762 8.74287 7.21762 8.11943C7.21762 7.496 7.53043 7.21891 7.6347 7.08037C7.73896 6.94183 7.87799 6.94183 7.98226 6.94183C8.05177 6.94183 8.15604 6.94183 8.22555 6.94183C8.29506 6.94183 8.39933 6.90719 8.5036 7.14964C8.60787 7.39209 8.85116 8.01553 8.88591 8.05016C8.92067 8.11943 8.92067 8.1887 8.88591 8.25798C8.85116 8.32725 8.8164 8.39652 8.74689 8.46579C8.67738 8.53506 8.60787 8.63896 8.57311 8.6736C8.5036 8.74287 8.43409 8.81214 8.5036 8.91605C8.57311 9.05459 8.8164 9.43558 9.19872 9.78193C9.68531 10.1976 10.0676 10.3361 10.2066 10.4054C10.3457 10.4746 10.4152 10.44 10.4847 10.3707C10.5542 10.3015 10.7975 10.0244 10.867 9.88584C10.9365 9.7473 11.0408 9.78193 11.1451 9.81657C11.2493 9.8512 11.8749 10.1629 11.9792 10.2322C12.1182 10.3015 12.1877 10.3361 12.2225 10.3707C12.2573 10.4746 12.2573 10.7171 12.153 10.9942Z"/>
    </symbol>
    <symbol id="menu-icon" width="35" height="21" viewBox="0 0 35 21" xmlns="http://www.w3.org/2000/svg">
        <path d="M0 5C0 2.23858 2.23858 0 5 0H35C35 2.76142 32.7614 5 30 5H0Z"/>
        <path d="M0 13C0 10.2386 2.23858 8 5 8H35C35 10.7614 32.7614 13 30 13H0Z"/>
        <path d="M0 21C0 18.2386 2.23858 16 5 16H35C35 18.7614 32.7614 21 30 21H0Z"/>
    </symbol>

</svg>