<svg width="10" height="9" viewBox="0 0 10 9" fill="none" xmlns="http://www.w3.org/2000/svg">
<path d="M0.441485 4.67788L2.62558 5.49229L3.477 8.23165C3.51402 8.41675 3.73613 8.45377 3.88421 8.34271L5.10581 7.34321C5.21687 7.23216 5.40196 7.23216 5.55004 7.34321L7.73412 8.93501C7.8822 9.04606 8.10431 8.97202 8.14133 8.78693L9.77014 1.01306C9.80716 0.827964 9.62207 0.642874 9.43697 0.716911L0.441485 4.19665C0.219375 4.27068 0.219375 4.60385 0.441485 4.67788ZM3.36595 5.08509L7.66008 2.45678C7.73412 2.41976 7.80816 2.53081 7.73412 2.56783L4.21737 5.86248C4.10632 5.97353 3.99526 6.1216 3.99526 6.3067L3.88421 7.19514C3.88421 7.30619 3.69911 7.34321 3.66209 7.19514L3.21787 5.56633C3.10681 5.38123 3.18086 5.15912 3.36595 5.08509Z" fill="#243469"/>
</svg>
