<svg width="11" height="12" viewBox="0 0 11 12" fill="none" xmlns="http://www.w3.org/2000/svg">
<path d="M8.47062 1.00931C6.66015 0.663564 4.78004 0.663564 2.96957 1.00931C2.16878 1.18218 1.1591 2.15027 0.985013 2.91091C0.671662 4.39761 0.671662 5.91889 0.985013 7.4056C1.19391 8.16624 2.2036 9.13432 2.96957 9.3072C3.00438 9.3072 3.0392 9.34177 3.0392 9.37635V11.5545C3.0392 11.6583 3.17847 11.7274 3.2481 11.6237L4.29261 10.5519C4.29261 10.5519 5.12821 9.68752 5.26747 9.54922C5.26747 9.54922 5.30229 9.51464 5.33711 9.51464C6.38161 9.54922 7.46093 9.4455 8.50543 9.27262C9.30622 9.09975 10.3159 8.13166 10.49 7.37102C10.8033 5.88432 10.8033 4.36304 10.49 2.87633C10.2811 2.15027 9.2714 1.18218 8.47062 1.00931ZM8.50543 7.50932C8.33135 7.85507 8.12245 8.13166 7.77428 8.30454C7.66983 8.33911 7.56538 8.37368 7.46093 8.40826C7.32166 8.37368 7.21721 8.33911 7.11276 8.30454C5.99863 7.85507 4.95412 7.23273 4.11852 6.33379C3.6659 5.81517 3.28292 5.2274 2.96957 4.60506C2.8303 4.29389 2.69103 4.01729 2.58658 3.70612C2.48213 3.42953 2.65622 3.15293 2.8303 2.94548C3.00438 2.73804 3.21329 2.59974 3.457 2.49601C3.63109 2.39229 3.80517 2.46144 3.94444 2.59974C4.22297 2.94548 4.50151 3.29123 4.71041 3.67155C4.84967 3.91357 4.81486 4.19017 4.57114 4.36304C4.5015 4.39761 4.46669 4.43219 4.39705 4.50134C4.36224 4.53591 4.2926 4.57049 4.25779 4.63963C4.18815 4.74336 4.18815 4.84708 4.22297 4.95081C4.5015 5.74602 5.02376 6.36836 5.82454 6.71411C5.96381 6.78326 6.06826 6.81783 6.24234 6.81783C6.48606 6.78326 6.59051 6.50666 6.7646 6.36836C6.93868 6.23006 7.14758 6.23006 7.35648 6.33379C7.53056 6.43751 7.70465 6.57581 7.91355 6.71411C8.08763 6.85241 8.26171 6.95613 8.4358 7.09443C8.54025 7.16358 8.57507 7.33645 8.50543 7.50932ZM7.04313 4.91623C6.97349 4.91623 7.00831 4.91623 7.04313 4.91623C6.90386 4.91623 6.86904 4.84708 6.83423 4.74336C6.83423 4.67421 6.83423 4.57049 6.79941 4.50134C6.7646 4.36304 6.69496 4.22474 6.5557 4.12102C6.48606 4.08644 6.41643 4.05187 6.34679 4.01729C6.24234 3.98272 6.17271 3.98272 6.06826 3.98272C5.96381 3.94814 5.92899 3.879 5.92899 3.77527C5.92899 3.70612 6.03344 3.63697 6.10308 3.63697C6.66014 3.67155 7.07795 3.98272 7.14758 4.63963C7.14758 4.67421 7.14758 4.74336 7.14758 4.77793C7.14758 4.84708 7.11276 4.91623 7.04313 4.91623ZM6.69496 3.39495C6.52088 3.3258 6.34679 3.25665 6.13789 3.22208C6.06826 3.22208 5.96381 3.1875 5.89418 3.1875C5.78973 3.1875 5.72009 3.11836 5.75491 3.01463C5.75491 2.91091 5.82454 2.84176 5.92899 2.87633C6.27716 2.91091 6.59051 2.98006 6.90386 3.11836C7.53056 3.42953 7.87873 3.94814 7.98318 4.63963C7.98318 4.67421 7.98318 4.70878 7.98318 4.74336C7.98318 4.81251 7.98318 4.88166 7.98318 4.98538C7.98318 5.01995 7.98318 5.05453 7.98318 5.0891C7.94837 5.2274 7.70465 5.26198 7.66983 5.0891C7.66983 5.05453 7.63501 4.98538 7.63501 4.95081C7.63501 4.63964 7.56538 4.32846 7.42611 4.05187C7.21721 3.7407 6.97349 3.53325 6.69496 3.39495ZM8.57507 5.46942C8.47062 5.46942 8.40098 5.3657 8.40098 5.26198C8.40098 5.05453 8.36617 4.84708 8.33135 4.63963C8.19208 3.53325 7.28685 2.63431 6.20753 2.46144C6.03344 2.42686 5.85936 2.42686 5.72009 2.39229C5.61564 2.39229 5.47637 2.39229 5.44156 2.25399C5.40674 2.15027 5.51119 2.04655 5.61564 2.04655C5.65046 2.04655 5.68528 2.04655 5.68528 2.04655C7.11276 2.08112 5.75491 2.04655 5.68528 2.04655C7.14758 2.08112 8.36617 3.04921 8.60988 4.50134C8.6447 4.74336 8.67952 4.98538 8.67952 5.26198C8.74915 5.3657 8.67952 5.46942 8.57507 5.46942Z" fill="#243469"/>
</svg>
