<svg width="11" height="11" viewBox="0 0 11 11" fill="none" xmlns="http://www.w3.org/2000/svg">
<path d="M9.26524 1.72959C8.32683 0.794433 7.07561 0.274902 5.75488 0.274902C3.00915 0.274902 0.784756 2.49157 0.784756 5.22777C0.784756 6.09365 1.02805 6.95954 1.44512 7.68688L0.75 10.2499L3.39146 9.55719C4.12134 9.93818 4.92073 10.146 5.75488 10.146C8.50061 10.146 10.725 7.92933 10.725 5.19313C10.6902 3.91162 10.2037 2.66475 9.26524 1.72959ZM8.15305 6.99417C8.04878 7.27126 7.5622 7.54834 7.3189 7.58297C7.11037 7.61761 6.83232 7.61761 6.55427 7.54834C6.38049 7.47907 6.1372 7.4098 5.85915 7.27126C4.60793 6.75173 3.80854 5.50485 3.73903 5.40094C3.66951 5.33167 3.21768 4.74287 3.21768 4.11943C3.21768 3.496 3.53049 3.21891 3.63476 3.08037C3.73902 2.94183 3.87805 2.94183 3.98232 2.94183C4.05183 2.94183 4.1561 2.94183 4.22561 2.94183C4.29512 2.94183 4.39939 2.90719 4.50366 3.14964C4.60793 3.39209 4.85122 4.01553 4.88598 4.05016C4.92073 4.11943 4.92073 4.1887 4.88598 4.25798C4.85122 4.32725 4.81646 4.39652 4.74695 4.46579C4.67744 4.53506 4.60793 4.63896 4.57317 4.6736C4.50366 4.74287 4.43415 4.81214 4.50366 4.91605C4.57317 5.05459 4.81646 5.43558 5.19878 5.78193C5.68537 6.19756 6.06768 6.3361 6.20671 6.40537C6.34573 6.47464 6.41524 6.44001 6.48476 6.37074C6.55427 6.30146 6.79756 6.02438 6.86707 5.88584C6.93659 5.7473 7.04085 5.78193 7.14512 5.81657C7.24939 5.8512 7.875 6.16292 7.97927 6.23219C8.11829 6.30147 8.1878 6.3361 8.22256 6.37074C8.25732 6.47464 8.25732 6.71709 8.15305 6.99417Z" fill="#243469"/>
</svg>
